<svg width="20" height="20" viewBox="0 0 20 20" fill="none" xmlns="http://www.w3.org/2000/svg">
<rect x="1" y="1" width="18" height="18" rx="4" stroke="black" stroke-width="2"/>
<mask id="path-2-inside-1_202_39" fill="white">
<path d="M11 15C11 15.5523 10.5523 16 10 16C9.44772 16 9 15.5523 9 15L9 5C9 4.44771 9.44772 4 10 4C10.5523 4 11 4.44772 11 5L11 15Z"/>
</mask>
<path d="M9 15L11 15L11 5L9 5L7 5L7 15L9 15ZM11 5L9 5L9 15L11 15L13 15L13 5L11 5ZM10 4L10 6C9.44772 6 9 5.55229 9 5L11 5L13 5C13 3.34315 11.6569 2 10 2L10 4ZM9 5L11 5C11 5.55229 10.5523 6 10 6L10 4L10 2C8.34315 2 7 3.34314 7 5L9 5ZM10 16L10 14C10.5523 14 11 14.4477 11 15L9 15L7 15C7 16.6569 8.34315 18 10 18L10 16ZM10 16L10 18C11.6569 18 13 16.6569 13 15L11 15L9 15C9 14.4477 9.44772 14 10 14L10 16Z" fill="black" mask="url(#path-2-inside-1_202_39)"/>
<rect x="15.5" y="9.5" width="1" height="11" rx="0.5" transform="rotate(90 15.5 9.5)" stroke="black"/>
</svg>
