<svg width="177" height="130" viewBox="0 0 177 130" fill="none" xmlns="http://www.w3.org/2000/svg">
<path d="M161 0C169.837 0 177 7.16344 177 16V114C177 122.837 169.837 130 161 130H16C7.16344 130 8.05372e-09 122.837 0 114V16C0 7.16344 7.16344 1.61064e-08 16 0H161ZM24 16C22.3431 16 21 17.3431 21 19V111C21 112.657 22.3431 114 24 114H27C28.6569 114 30 112.657 30 111V19C30 17.3431 28.6569 16 27 16H24ZM39 16C37.8954 16 37 16.8954 37 18V112C37 113.105 37.8954 114 39 114C40.1046 114 41 113.105 41 112V18C41 16.8954 40.1046 16 39 16ZM51 16C49.3431 16 48 17.3431 48 19V111C48 112.657 49.3431 114 51 114H57C58.6569 114 60 112.657 60 111V19C60 17.3431 58.6569 16 57 16H51ZM69 16C67.3431 16 66 17.3431 66 19V111C66 112.657 67.3431 114 69 114C70.6569 114 72 112.657 72 111V19C72 17.3431 70.6569 16 69 16ZM78 16C76.8954 16 76 16.8954 76 18V112C76 113.105 76.8954 114 78 114C79.1046 114 80 113.105 80 112V18C80 16.8954 79.1046 16 78 16ZM83.5 16C82.6716 16 82 16.6716 82 17.5V112.5C82 113.328 82.6716 114 83.5 114C84.3284 114 85 113.328 85 112.5V17.5C85 16.6716 84.3284 16 83.5 16ZM93 16C91.3431 16 90 17.3431 90 19V111C90 112.657 91.3431 114 93 114H95C96.6569 114 98 112.657 98 111V19C98 17.3431 96.6569 16 95 16H93ZM108 16C106.343 16 105 17.3431 105 19V111C105 112.657 106.343 114 108 114C109.657 114 111 112.657 111 111V19C111 17.3431 109.657 16 108 16ZM120 16C118.343 16 117 17.3431 117 19V111C117 112.657 118.343 114 120 114H125C126.657 114 128 112.657 128 111V19C128 17.3431 126.657 16 125 16H120ZM137.5 16C136.119 16 135 17.1193 135 18.5V111.5C135 112.881 136.119 114 137.5 114C138.881 114 140 112.881 140 111.5V18.5C140 17.1193 138.881 16 137.5 16ZM150 16C148.343 16 147 17.3431 147 19V111C147 112.657 148.343 114 150 114H153C154.657 114 156 112.657 156 111V19C156 17.3431 154.657 16 153 16H150Z" fill="#ABC876"/>
</svg>
